<?xml version="1.0" standalone="no"?>
<!DOCTYPE svg PUBLIC "-//W3C//DTD SVG 20010904//EN"
 "http://www.w3.org/TR/2001/REC-SVG-20010904/DTD/svg10.dtd">
<svg version="1.0" xmlns="http://www.w3.org/2000/svg"
 width="279.000000pt" height="279.000000pt" viewBox="0 0 279.000000 279.000000"
 preserveAspectRatio="xMidYMid meet">
<metadata>
Created by potrace 1.11, written by Peter Selinger 2001-2013
</metadata>
<g transform="translate(0.000000,279.000000) scale(0.100000,-0.100000)"
fill="#000000" stroke="none">
<path d="M640 2500 l0 -210 810 0 810 0 0 -830 0 -830 230 0 230 0 0 1040 0
1040 -1040 0 -1040 0 0 -210z"/>
<path d="M240 1690 l0 -210 605 0 605 0 0 -625 0 -625 230 0 230 0 0 835 0
835 -835 0 -835 0 0 -210z"/>
<path d="M100 545 l0 -455 455 0 455 0 0 455 0 455 -455 0 -455 0 0 -455z"/>
</g>
</svg>
